<?xml version="1.0" encoding="utf-8"?>
<!-- Generator: Adobe Illustrator 22.1.0, SVG Export Plug-In . SVG Version: 6.00 Build 0)  -->
<svg version="1.1" id="Layer_1" xmlns="http://www.w3.org/2000/svg" xmlns:xlink="http://www.w3.org/1999/xlink" x="0px" y="0px"
	 viewBox="0 0 256 256" style="enable-background:new 0 0 256 256;" xml:space="preserve">
<style type="text/css">
	.st0{fill:#FFFFFF;}
</style>
<g>
	<g>
		<path id="Chevron_Right_1_" class="st0" d="M146.3,125.5L114.8,94c-1.4-1.4-3.6-1.4-5,0c-1.4,1.4-1.4,3.6,0,5l29,29l-29,29
			c-1.4,1.4-1.4,3.6,0,5c1.4,1.4,3.6,1.4,5,0l31.5-31.5C147.6,129.1,147.6,126.9,146.3,125.5z"/>
	</g>
	<g>
		<path class="st0" d="M128,38c49.6,0,90,40.4,90,90s-40.4,90-90,90s-90-40.4-90-90S78.4,38,128,38z M128,212.1
			c46.4,0,84.1-37.7,84.1-84.1S174.4,43.9,128,43.9S43.9,81.6,43.9,128S81.6,212.1,128,212.1z"/>
	</g>
</g>
</svg>
