<?xml version="1.0" encoding="utf-8"?>
<!-- Generator: Adobe Illustrator 24.0.1, SVG Export Plug-In . SVG Version: 6.00 Build 0)  -->
<svg version="1.1" id="Layer_1" xmlns="http://www.w3.org/2000/svg" xmlns:xlink="http://www.w3.org/1999/xlink" x="0px" y="0px"
	 viewBox="0 0 256 256" style="enable-background:new 0 0 256 256;" xml:space="preserve">
<style type="text/css">
	.st0{fill:#CCCACA;}
	.st1{fill:#F0C62F;}
	.st2{fill:#FFC800;}
	.st3{fill:#00AABE;}
</style>
<path class="st3" d="M170.6,91.6H85.4c-4.9,0-8.9,4-8.9,8.9v59.6c0,4.9,4,8.9,8.9,8.9h85.1c4.9,0,8.9-4,8.9-8.9v-59.6
	C179.5,95.6,175.5,91.6,170.6,91.6z M174.4,100.6v59.6c0,0.1,0,0.2,0,0.3c-5.6-5.4-22-20.9-32.9-30.2c10.8-9.9,27.2-24.9,32.9-30
	C174.4,100.3,174.4,100.5,174.4,100.6z M81.6,100.6c0-0.1,0-0.3,0-0.4c3.3,3,21,19.2,32.9,30c-10.8,9.3-27.2,24.9-32.9,30.2
	c0-0.1,0-0.2,0-0.3V100.6z M130.8,133c-0.6,0.6-1.6,1.2-2.8,1.2c-1.2,0-2.2-0.7-2.8-1.2c-5.7-5.1-19.8-18-39.7-36.2h85
	C162.5,104.1,139.2,125.5,130.8,133z M118.3,133.7c1.3,1.2,2.5,2.3,3.4,3.1c1.8,1.7,4,2.5,6.2,2.5c2.2,0,4.4-0.9,6.2-2.5
	c0.9-0.9,2.1-1.9,3.4-3.1c10.7,9.1,27.2,24.8,33,30.3c0,0-0.1,0-0.1,0H85.4c0,0-0.1,0-0.1,0C91.1,158.5,107.7,142.8,118.3,133.7z"/>
<g>
	<path class="st3" d="M191.6,64.4C174.6,47.4,152,38,128,38c-24,0-46.6,9.4-63.6,26.4C47.4,81.4,38,104,38,128
		c0,24,9.4,46.6,26.4,63.6c17,17,39.6,26.4,63.6,26.4c24,0,46.6-9.4,63.6-26.4c17-17,26.4-39.6,26.4-63.6
		C218,104,208.6,81.4,191.6,64.4z M210.5,128c0,22-8.6,42.7-24.2,58.3c-15.6,15.6-36.3,24.1-58.3,24.1c-22,0-42.7-8.6-58.3-24.1
		C54.1,170.7,45.5,150,45.5,128c0-22,8.6-42.7,24.2-58.3C85.3,54.1,106,45.5,128,45.5c22,0,42.7,8.6,58.3,24.2
		C201.9,85.3,210.5,106,210.5,128z"/>
</g>
</svg>
