<?xml version="1.0" encoding="UTF-8"?> <!-- Generator: Adobe Illustrator 22.1.0, SVG Export Plug-In . SVG Version: 6.00 Build 0) --> <svg xmlns="http://www.w3.org/2000/svg" xmlns:xlink="http://www.w3.org/1999/xlink" id="Layer_1" x="0px" y="0px" viewBox="0 0 256 256" style="enable-background:new 0 0 256 256;" xml:space="preserve"> <style type="text/css"> .st0{fill:#00AABE;} </style> <g> <path class="st0" d="M147,119.4c-0.2,0-0.5,0-0.7-0.1l-98.2-31c-1-0.3-1.7-1.2-1.7-2.3c0-1,0.6-2,1.6-2.3l61-21.2 c2.1-0.7,4.1-0.8,6-0.2l101.2,27.4c0.9,0.2,1.6,1,1.8,2c0.1,1-0.4,1.9-1.2,2.4l-69,25.2C147.6,119.4,147.3,119.4,147,119.4 M56.5,85.9l90.5,28.6l60.7-22.1l-93.9-25.5c-1-0.3-2.1-0.2-3.2,0.1L56.5,85.9z"></path> <path class="st0" d="M57.3,108.1c-0.2,0-0.5,0-0.7-0.1l-8.7-2.8c-0.8-0.2-1.3-0.8-1.6-1.6c-0.1-0.2-1.4-4.5-1.3-9 c0-6,1.5-9.3,1.7-9.6c0.6-1.2,2-1.7,3.2-1.1c1.2,0.6,1.7,2,1.1,3.2c0,0-1.2,2.6-1.2,7.6c-0.1,2.5,0.4,4.9,0.8,6.3l7.5,2.4 c1.3,0.4,2,1.8,1.6,3.1C59.2,107.4,58.3,108.1,57.3,108.1"></path> <path class="st0" d="M146.5,137.6c-0.2,0-0.5,0-0.8-0.1l-17.4-5.7c-1.3-0.4-2-1.8-1.5-3.1c0.4-1.3,1.8-2,3.1-1.5l13.3,4.4 c-0.2-1.6-0.4-3.4-0.4-5.4c0-7.1,1.9-10,2.3-10.5c0.8-1.1,2.3-1.3,3.4-0.5c1.1,0.8,1.3,2.3,0.5,3.3c-0.1,0.1-1.4,2.3-1.4,7.7 c0,4.5,1.2,8.2,1.2,8.3c0.3,0.9,0.1,1.8-0.6,2.5C147.7,137.3,147.1,137.6,146.5,137.6"></path> <path class="st0" d="M147.4,137.2c-1,0-1.9-0.6-2.3-1.6c-0.5-1.2,0.2-2.6,1.4-3.1l65.6-25.2l0.7-11.8l-65,23.7 c-1.3,0.5-2.6-0.2-3.1-1.4c-0.5-1.3,0.2-2.6,1.4-3.1l68.5-25c0.8-0.3,1.6-0.2,2.3,0.3c0.6,0.5,1,1.3,1,2.1l-1,17 c-0.1,0.9-0.7,1.8-1.6,2.1l-67.1,25.7C148,137.2,147.7,137.2,147.4,137.2"></path> <path class="st0" d="M148.6,194.1c-0.3,0-0.6-0.1-0.9-0.2l-41.4-17.1l1.9-4.5l36.8,15.2c-0.9-3.8-2.1-9.3-2.2-14.8 c-0.2-6.5,1.1-12.7,2-15.9l-28.8-10.6l1.7-4.5l30.8,11.3c0.5,0.2,0.9,0.5,1.2,0.9c0.5,0.6,0.6,1.5,0.3,2.2c0,0.1-2.7,8.1-2.4,16.5 c0.2,8.8,3.3,18.2,3.3,18.3c0.3,0.9,0,1.9-0.7,2.5C149.8,193.9,149.2,194.1,148.6,194.1"></path> <path class="st0" d="M149.4,194l-2.4-4.2l64.3-35.9l1-30.3l4.8,0.2l-1.1,31.7c0,0.9-0.5,1.6-1.2,2L149.4,194z"></path> <path class="st0" d="M147.7,157.8h-2.4l0-4.8h1.9l62.1-30.2l-12.5-6l2.1-4.4l17,8.1c0.8,0.4,1.4,1.2,1.4,2.2c0,0.9-0.5,1.8-1.4,2.2 l-67.1,32.6C148.4,157.7,148.1,157.8,147.7,157.8"></path> <path class="st0" d="M156.9,177.4c-0.9,0-1.7-0.5-2.1-1.3c-0.6-1.2-0.2-2.6,1-3.3l45.2-24.5l0.4-9.3c0.1-1.3,1.2-2.4,2.5-2.3 c1.3,0.1,2.4,1.2,2.3,2.5l-0.5,10.7c0,0.9-0.5,1.6-1.3,2l-46.3,25.2C157.7,177.3,157.3,177.4,156.9,177.4"></path> <path class="st0" d="M140.9,104.8c-0.2,0-0.5,0-0.7-0.1L82.7,86.5c-1.3-0.4-2-1.8-1.6-3c0.4-1.3,1.8-2,3-1.6l57.5,18.1 c1.3,0.4,2,1.8,1.6,3C142.9,104.1,141.9,104.8,140.9,104.8"></path> <path class="st0" d="M79.2,190.9C56.5,190.9,38,172,38,148.7c0-23.2,18.5-42.2,41.2-42.2c22.7,0,41.2,18.9,41.2,42.2 C120.4,172,101.9,190.9,79.2,190.9 M79.2,111.4c-20.1,0-36.4,16.7-36.4,37.3c0,20.6,16.3,37.3,36.4,37.3 c20.1,0,36.4-16.7,36.4-37.3C115.5,128.2,99.3,111.4,79.2,111.4z"></path> <path class="st0" d="M92.3,169.6H66.1c-1.1,0-2-0.7-2.3-1.7l-8.1-25.5c-0.3-1,0-2.1,0.9-2.7L77.8,124c0.8-0.6,2-0.6,2.9,0 l21.2,15.8c0.8,0.6,1.2,1.7,0.9,2.7l-8.1,25.5C94.3,169,93.4,169.6,92.3,169.6 M67.9,164.8h22.7l7.1-22.2l-18.4-13.7l-18.4,13.7 L67.9,164.8z"></path> <rect x="76.8" y="106.6" class="st0" width="4.8" height="21.7"></rect> <rect x="47.7" y="128.4" transform="matrix(0.3154 -0.9489 0.9489 0.3154 -97.6348 142.7992)" class="st0" width="4.8" height="21.4"></rect> <rect x="50.5" y="171.6" transform="matrix(0.579 -0.8153 0.8153 0.579 -116.1148 123.2058)" class="st0" width="21.6" height="4.8"></rect> <polygon class="st0" points="101.4,184.3 88.9,166.6 92.9,163.8 105.3,181.5 "></polygon> <rect x="97.6" y="136.7" transform="matrix(0.949 -0.3152 0.3152 0.949 -38.32 41.2069)" class="st0" width="21.4" height="4.8"></rect> </g> </svg> 