<?xml version="1.0" encoding="UTF-8"?> <!-- Generator: Adobe Illustrator 22.1.0, SVG Export Plug-In . SVG Version: 6.00 Build 0) --> <svg xmlns="http://www.w3.org/2000/svg" xmlns:xlink="http://www.w3.org/1999/xlink" id="Layer_1" x="0px" y="0px" viewBox="0 0 256 256" style="enable-background:new 0 0 256 256;" xml:space="preserve"> <style type="text/css"> .st0{fill:#00AABE;} </style> <path class="st0" d="M218,129.2c0-3-1.5-5.6-4-7.1l-19.2-11l19.1-10.4c2.6-1.4,4.1-4,4.1-7c0-3-1.5-5.6-4-7.1l-81.7-47.1 c-2.4-1.4-5.4-1.4-7.8,0L42,86.7c-2.6,1.5-4.1,4.1-4,7.1c0,3,1.6,5.6,4.2,7l19.1,10.4l-19.2,11c-2.6,1.5-4.1,4.1-4,7.1 c0,3,1.6,5.6,4.2,7l19.1,10.4l-19.2,11c-2.6,1.5-4.1,4.1-4,7.1c0,3,1.6,5.6,4.2,7l82.1,44.8c1.2,0.6,2.4,1,3.7,1 c1.3,0,2.6-0.3,3.7-1l82.1-44.8c2.6-1.4,4.1-4,4.2-7c0-3-1.5-5.6-4-7.1l-19.2-11l19-10.4C216.4,134.8,218,132.2,218,129.2z M43.4,93.7c0-1,0.5-1.9,1.3-2.3l82.5-47.1c0.4-0.2,0.8-0.3,1.2-0.3c0.4,0,0.8,0.1,1.2,0.3l81.6,47.1v0c0.8,0.5,1.3,1.3,1.3,2.3 c0,1-0.5,1.8-1.3,2.3l-82.1,44.8c-0.7,0.4-1.6,0.4-2.3,0L44.8,96C43.9,95.5,43.4,94.7,43.4,93.7z M211.3,162.3 c0.8,0.5,1.3,1.3,1.3,2.3c0,1-0.5,1.9-1.4,2.3l-82.1,44.8c-0.7,0.4-1.6,0.4-2.3,0L44.8,167c-0.8-0.5-1.3-1.3-1.4-2.3 c0-1,0.5-1.9,1.3-2.3l22.1-12.7l57.4,31.3c1.2,0.6,2.5,1,3.7,1c1.3,0,2.6-0.3,3.7-1l57.5-31.4L211.3,162.3z M211.2,131.5l-82.1,44.8 c-0.7,0.4-1.6,0.4-2.3,0l-82.1-44.8c-0.8-0.5-1.3-1.3-1.4-2.3c0-1,0.5-1.9,1.3-2.3l22.1-12.7l57.4,31.3c1.2,0.6,2.5,1,3.7,1 c1.3,0,2.6-0.3,3.7-1l57.5-31.4l22.1,12.7c0.8,0.5,1.3,1.3,1.3,2.3C212.6,130.2,212.1,131,211.2,131.5z"></path> <path class="st0" d="M130.6,60.7c1.3,0,2.3-1.1,2.3-2.4c0-1.3-1.1-2.4-2.3-2.4c-1.3,0-2.4,1.1-2.4,2.4 C128.2,59.6,129.3,60.7,130.6,60.7z"></path> <path class="st0" d="M114.6,64.5L63.9,93c-1.1,0.7-1.6,2.1-0.9,3.2c0.4,0.8,1.3,1.2,2.1,1.2c0.4,0,0.8-0.1,1.2-0.3l50.7-28.5 c1.1-0.7,1.5-2.1,0.9-3.2C117.2,64.2,115.7,63.8,114.6,64.5z"></path> </svg> 