<?xml version="1.0" encoding="UTF-8"?> <!-- Generator: Adobe Illustrator 22.1.0, SVG Export Plug-In . SVG Version: 6.00 Build 0) --> <svg xmlns="http://www.w3.org/2000/svg" xmlns:xlink="http://www.w3.org/1999/xlink" id="Layer_1" x="0px" y="0px" viewBox="0 0 256 256" style="enable-background:new 0 0 256 256;" xml:space="preserve"> <style type="text/css"> .st0{fill:#00AABE;} </style> <g> <path class="st0" d="M207.6,124.6h-28.7c-1.5,0-2.7-1.2-2.7-2.7c0-1.5,1.2-2.7,2.7-2.7h28.7c2.7,0,4.9-2.3,4.9-5.1v-49 c0-2.8-2.2-5.1-4.9-5.1H48.4c-2.7,0-4.9,2.3-4.9,5.1v49c0,2.8,2.2,5.1,4.9,5.1h27.6c1.5,0,2.7,1.2,2.7,2.7c0,1.5-1.2,2.7-2.7,2.7 H48.4c-5.7,0-10.4-4.7-10.4-10.5v-49c0-5.8,4.6-10.5,10.4-10.5h159.3c5.7,0,10.4,4.7,10.4,10.5v49 C218,119.9,213.4,124.6,207.6,124.6"></path> <path class="st0" d="M65.7,105.5H63c-5.7,0-10.3-4.7-10.3-10.5V82.4c0-5.8,4.6-10.5,10.3-10.5h64.2c1.5,0,2.7,1.2,2.7,2.7 c0,1.5-1.2,2.7-2.7,2.7H63c-2.7,0-4.9,2.3-4.9,5.1v12.6c0,2.8,2.2,5.1,4.9,5.1h2.6c1.5,0,2.7,1.2,2.7,2.7 C68.4,104.2,67.2,105.5,65.7,105.5"></path> <path class="st0" d="M150.2,200.9c-14.9,0-37.7-0.1-72.8-0.2l-2.7,0v-125c0-1.5,1.2-2.7,2.7-2.7c1.5,0,2.7,1.2,2.7,2.7v119.5 c34.5,0.1,82.9,0.2,94.3,0.1V75.7c0-1.5,1.2-2.7,2.7-2.7c1.5,0,2.7,1.2,2.7,2.7v123.4l-0.8,0.8C178.3,200.6,178,200.9,150.2,200.9"></path> <path class="st0" d="M126.8,176.2h-15.7c-3,0-5.9-1.3-7.9-3.7l-9.5-11.3c-1.6-1.9-2.5-4.3-2.5-6.9V75.1c0-1.5,1.2-2.7,2.7-2.7 c1.5,0,2.7,1.2,2.7,2.7v79.3c0,1.2,0.4,2.4,1.2,3.4l9.5,11.3c0.9,1.1,2.3,1.7,3.7,1.7h15.7c1.5,0,2.7,1.2,2.7,2.7 C129.6,175,128.4,176.2,126.8,176.2"></path> <path class="st0" d="M141.9,176.2h-15.7c-1.5,0-2.7-1.2-2.7-2.7c0-1.5,1.2-2.7,2.7-2.7h15.7c1.4,0,2.8-0.6,3.7-1.7l9.5-11.3 c0.8-0.9,1.2-2.1,1.2-3.4V75.1c0-1.5,1.2-2.7,2.7-2.7c1.5,0,2.7,1.2,2.7,2.7v79.3c0,2.5-0.9,5-2.5,6.9l-9.5,11.3 C147.8,174.9,144.9,176.2,141.9,176.2"></path> <path class="st0" d="M191.5,105.5h-2.7c-1.5,0-2.7-1.2-2.7-2.7c0-1.5,1.2-2.7,2.7-2.7h2.7c2.7,0,4.9-2.3,4.9-5.1V82.4 c0-2.8-2.2-5.1-4.9-5.1h-64.2c-1.5,0-2.7-1.2-2.7-2.7c0-1.5,1.2-2.7,2.7-2.7h64.2c5.7,0,10.4,4.7,10.4,10.5v12.6 C201.9,100.7,197.2,105.5,191.5,105.5"></path> <path class="st0" d="M124.2,152.5v-6.9c-3.9-0.1-7.8-1.3-10.2-3l1.6-4.6c2.3,1.6,5.8,2.9,9.5,2.9c4.8,0,8-2.8,8-6.7 c0-3.8-2.6-6.1-7.6-8.2c-6.8-2.7-11-6-11-11.9c0-5.7,3.9-10,10-11v-6.9h4.2v6.7c4,0.1,6.8,1.2,8.7,2.4l-1.7,4.5 c-1.4-0.8-4.2-2.4-8.4-2.4c-5.2,0-7.1,3.2-7.1,6c0,3.5,2.5,5.3,8.3,7.8c6.9,2.9,10.4,6.4,10.4,12.5c0,5.5-3.7,10.6-10.6,11.7v7.1 H124.2z"></path> <path class="st0" d="M128.4,153.2h-4.2c-0.4,0-0.7-0.3-0.7-0.7v-6.3c-3.7-0.2-7.5-1.4-9.9-3.1c-0.2-0.2-0.3-0.5-0.2-0.8l1.6-4.6 c0.1-0.2,0.2-0.4,0.4-0.4c0.2-0.1,0.4,0,0.6,0.1c2.5,1.8,5.9,2.8,9.1,2.8c4.4,0,7.4-2.4,7.4-6c0-3.3-2.1-5.4-7.1-7.5 c-5.9-2.4-11.5-5.6-11.5-12.6c0-5.8,3.9-10.4,10.1-11.6v-6.3c0-0.4,0.3-0.7,0.7-0.7h4.2c0.4,0,0.7,0.3,0.7,0.7v6 c3.2,0.2,5.9,1,8.4,2.5c0.3,0.2,0.4,0.5,0.3,0.8l-1.7,4.5c-0.1,0.2-0.2,0.3-0.4,0.4c-0.2,0.1-0.4,0.1-0.6,0 c-1.3-0.7-3.9-2.3-8.1-2.3c-4.7,0-6.4,2.9-6.4,5.3c0,2.9,1.8,4.5,7.9,7.2c7.5,3.2,10.8,7.1,10.8,13.1c0,6.1-4.2,11-10.6,12.3v6.6 C129.1,152.9,128.8,153.2,128.4,153.2 M124.8,151.8h2.9v-6.5c0-0.3,0.2-0.6,0.6-0.7c6.1-1,10-5.4,10-11.1c0-5.5-2.9-8.9-10-11.9 c-5.9-2.6-8.7-4.5-8.7-8.4c0-3.3,2.4-6.7,7.8-6.7c3.9,0,6.5,1.2,8.1,2.1l1.2-3.2c-2.3-1.3-4.9-1.9-7.9-2c-0.4,0-0.7-0.3-0.7-0.7v-6 h-2.9v6.2c0,0.3-0.2,0.6-0.6,0.7c-5.7,1-9.5,5.1-9.5,10.4c0,5,3.1,8.3,10.6,11.3c5.6,2.3,8,5,8,8.8c0,4.4-3.6,7.4-8.7,7.4 c-3.2,0-6.5-1-9.2-2.6l-1.1,3.3c2.3,1.5,5.9,2.5,9.4,2.6c0.4,0,0.7,0.3,0.7,0.7V151.8z"></path> </g> </svg> 