<?xml version="1.0" encoding="UTF-8"?> <!-- Generator: Adobe Illustrator 22.1.0, SVG Export Plug-In . SVG Version: 6.00 Build 0) --> <svg xmlns="http://www.w3.org/2000/svg" xmlns:xlink="http://www.w3.org/1999/xlink" id="Layer_1" x="0px" y="0px" viewBox="0 0 256 256" style="enable-background:new 0 0 256 256;" xml:space="preserve"> <style type="text/css"> .st0{fill:#00AABE;} </style> <g> <path class="st0" d="M169.2,203.7c-2.8,0-5.7-0.1-8.7-0.4c-9.2-0.8-17.3-2.7-24.6-5.8c-14.6-6.1-25.5-15.7-32.1-28.5 c-4.2-8-9.9-14.6-17.6-20.2c-4.3-3.1-8.9-5.9-14.1-8.3c-12-5.8-21.3-13.3-28.4-23.1c-2-2.8-3.6-5.8-4.6-8.8 c-2.1-6.4-0.8-12.3,3.8-17.4c2.7-3,6.4-5.2,11.4-7.1c0.7-0.3,1.5-0.8,2-1.5C64,71.9,71.6,64.4,80.1,58.8c5.4-3.5,10.5-5.6,15.6-6.2 c1-0.1,2.1-0.2,3.1-0.2c3.1,0,6,0.6,8.8,1.8c2.9,1.3,4.4,4,4,7.2c-1,7,0.3,12.8,3.8,17.7c1.8,2.5,4.9,5.3,7,6.3l0.4,0.2l2-2 c1.2-1.2,2.5-2.4,3.8-3.5c4-3.2,8-4.8,12.4-4.8h0.6c1.2,0,2.3,0.2,3.5,0.5c2.1,0.5,3.6,2,4.4,4.3l14,39.3 c2.4,6.8,4.9,13.6,7.3,20.5c2,5.5,5.7,9.6,10.9,12c8.2,3.8,16.4,7.7,24.6,11.5c4.2,2,7.3,4.4,9.6,7.4c1.2,1.7,1.9,3.3,2,5 c0.1,1.6-0.3,3.1-1.2,4.6c-6.7,10.6-16.4,17.5-29.8,21C181.4,203,175.6,203.7,169.2,203.7 M55.1,89.3c-3.7,1.4-6.5,3.1-8.6,5.4 c-3.5,3.8-4.3,8.2-2.4,12.9c1.2,3.1,3,6,5.4,9c6.6,8,14.9,14.4,24.5,18.9c6.2,2.9,12,6.5,17.4,10.7c7.3,5.7,12.3,11.5,15.7,18.3 c6.1,12.3,15.7,21.4,28.4,27c10.2,4.5,21,6.8,32.2,6.8c3.8,0,7.7-0.3,11.6-0.8c8.2-1.1,15.6-3.9,22-8.4l2.9-2.1l-2.7,0.2 c-2,0.2-3.7,0.4-5.4,0.6c-3.9,0.5-7.7,0.9-11.6,1.2c-2.6,0.2-5.2,0.3-7.7,0.3c-4.9,0-10.1-0.3-17-0.9c-5.3-0.5-9.3-1.4-13-3 c-5.8-2.5-10.6-6.5-14.2-9.6c-4.7-4.1-10.5-9.8-14.3-17.1c-2.4-4.7-5.6-9.1-9.6-13.6c-8.9-9.7-19-18.1-27.6-25 c-6-4.8-11.4-10.1-16.1-15.7c-3-3.6-6.8-8.6-8.8-14.6l-0.1-0.3l-0.6-0.3L55.1,89.3z M129.1,165.2l0.5,0.6l0.6,0.5 c0.5,0.4,0.9,0.7,1.3,1.1c5.1,5.2,9.7,8.9,14.5,11.7c5,2.9,10.5,3.7,15.3,4.1c5.7,0.5,11,0.8,16.1,0.8c8.2,0,15.7-0.6,23-1.9 c3.2-0.6,6.5-1.2,9.6-2.8c1.3-0.6,2.6-1.4,2.8-2.7c0.2-1.3-0.7-2.5-1.6-3.6c-1.7-1.9-3.8-3.5-6.6-4.8l-24.8-11.6 c-0.3-0.1-0.6-0.3-0.8-0.4c-0.7-0.4-1.5-0.8-2.4-0.9c-2-0.4-4.2-0.7-6.3-0.7c-6.9,0.1-11.9,2.7-15.3,7.8c-1.2,1.9-3.1,3.2-5.6,4 c-1.6,0.6-3.4,0.8-5.3,0.8c-1.5,0-3-0.2-4.6-0.5c-2.1-0.5-4.2-1-6.2-1.6l-3.1-0.9L129.1,165.2z M98.5,57.6c-4.6,0-9.2,1.5-14.5,4.8 l-0.2,0.1l-0.2,0.7l0.2,0.3c2.9,4.1,5,8,6.6,12.1c2.2,5.8,3.5,15.4,0.1,23.5c-2.1,4.6-5.4,8.5-10.3,12.2l-0.7,0.5l1.4,1.2 c0.5,0.5,1,0.9,1.5,1.3c7.1,5.6,14.6,11.8,21.7,18.6c5.5,5.3,11.2,10.7,15.3,17.4c1.9,3,4.3,5.1,8.1,6.8c5.8,2.7,11.6,4.2,16.3,4.2 c3.5,0,6.1-0.8,7.3-2.3c4.1-5.1,8.5-8,14-9.1c0.9-0.2,1.9-0.3,2.7-0.4l2-0.3l-4.7-9.5l-1,0.2l-2.5,0.6c-2.5,0.6-5,1.2-7.5,1.7 c-0.3,0.1-0.6,0.1-0.9,0.1c-0.3,0-0.5,0-0.7-0.1c-1.1-0.3-1.8-1.3-1.8-2.5c0-1.3,0.8-2.3,2.1-2.6c1.9-0.5,9.4-2.2,9.4-2.2 c0.2,0,0.4-0.1,0.6-0.2l0.5-0.3l0-0.7l-1.8-5l-4.6,1.1c-2.2,0.5-4.4,1.1-6.6,1.6c-0.2,0.1-0.4,0.1-0.6,0.1c-1.2,0-2.1-0.8-2.4-2 c-0.3-1.4,0.5-2.7,1.9-3.2c0.3-0.1,10.6-2.7,10.6-2.7l-2.1-5.8l-5.4,1.3c-1.6,0.4-3.1,0.8-4.7,1.1c-0.2,0-0.4,0-0.6,0 c-1.2,0-2.2-0.8-2.4-1.9c-0.3-1.5,0.5-2.8,1.9-3.2c0.3-0.1,9.3-2.3,9.3-2.3l-2.3-6.3l-1.7,0.4c0,0-7.4,2.1-9.5,2.7 c-0.4,0.1-0.7,0.1-1.1,0.1c-1.2,0-2.1-0.7-2.4-1.9c-0.2-0.7-0.1-1.3,0.2-1.9c0.4-0.7,1.1-1.2,1.9-1.4l10.7-3.1l-1.4-4 c-0.5-1.3-0.7-2.1-1.9-2.1c-0.3,0-0.6,0-1.1,0.1l-0.5,0.1c-2.5,0.3-4.6,0.4-6.5,0.4c-3.7,0-7.1-0.4-10.3-1.3 c-2.9-0.8-5.4-2.3-8-3.8l-1.3-0.8c-5.6-3.3-9.4-7.3-11.8-12.3c-2.4-5.1-3.2-10.6-2.4-16.8c0.2-1.5-0.4-2.4-1.7-2.6l-1.4-0.3 c-1.2-0.3-2.5-0.6-3.7-0.7C99.2,57.6,98.9,57.6,98.5,57.6z M77.5,67.1c-5.4,4.5-10.1,9.8-14.9,15.4c-2.1,2.5-2.4,4.9-0.9,7.9 c3.4,7.2,8.8,12.7,13.4,17.6l0.4,0.4l1.8-1.4c1-0.8,1.9-1.5,2.8-2.3c6-5.6,8.5-12.4,7.2-20.3c-0.8-5.1-2.9-10.1-6.5-15.7 c-0.3-0.5-0.6-0.9-0.9-1.4L79,65.9L77.5,67.1z M141.4,80.7c-4.9,0-10.9,3.3-13.3,7.3l-0.4,0.7l0.7,0.3c3.5,1.4,7.4,2.2,11.7,2.2 c2,0,4.3-0.1,6.8-0.5l0.8-0.1l-1-2.8c-0.7-2-1.4-4-2.2-5.9c-0.2-0.6-1-1-1.5-1.1C142.6,80.7,142,80.7,141.4,80.7z"></path> </g> </svg> 