<?xml version="1.0" encoding="utf-8"?>
<!-- Generator: Adobe Illustrator 22.1.0, SVG Export Plug-In . SVG Version: 6.00 Build 0)  -->
<svg version="1.1" id="Layer_1" xmlns="http://www.w3.org/2000/svg" xmlns:xlink="http://www.w3.org/1999/xlink" x="0px" y="0px"
	 viewBox="0 0 256 256" style="enable-background:new 0 0 256 256;" xml:space="preserve">
<style type="text/css">
	.st0{fill:#00AABE;}
</style>
<g>
	<path class="st0" d="M191.6,64.4C174.6,47.4,152,38,128,38c-24,0-46.6,9.4-63.6,26.4C47.4,81.4,38,104,38,128
		c0,24,9.4,46.6,26.4,63.6c17,17,39.6,26.4,63.6,26.4c24,0,46.6-9.4,63.6-26.4c17-17,26.4-39.6,26.4-63.6
		C218,104,208.6,81.4,191.6,64.4z M210.5,128c0,22-8.6,42.7-24.2,58.3c-15.6,15.6-36.3,24.1-58.3,24.1c-22,0-42.7-8.6-58.3-24.1
		C54.1,170.7,45.5,150,45.5,128c0-22,8.6-42.7,24.2-58.3C85.3,54.1,106,45.5,128,45.5c22,0,42.7,8.6,58.3,24.2
		C201.9,85.3,210.5,106,210.5,128z"/>
	<g>
		<path class="st0" d="M154.9,176.2h20.2c1.8,0,3.3-1.5,3.3-3.3v-34.8c0-9.8-2.5-17.5-7.5-22.9c-4.7-5-11.2-7.7-19-7.7
			c-6.8,0-11.5,2.1-14.9,4.7v-0.1c0-1.8-1.5-3.3-3.3-3.3h-20.2c-0.9,0-1.7,0.4-2.4,1c-0.6,0.6-0.9,1.5-0.9,2.4c0.3,5.5,0,60,0,60.5
			c0,0.9,0.3,1.7,0.9,2.3c0.6,0.6,1.4,1,2.3,1h20.2c1.8,0,3.3-1.5,3.3-3.3v-33.9c0-1.8,0.1-3,0.4-3.7c0.6-1.6,2.7-5.3,7.3-5.3
			c1.9,0,7,0,7,10.5V173C151.6,174.8,153.1,176.2,154.9,176.2z M144.7,123.5c-6,0-11,3.5-13.4,9.4c-0.6,1.5-0.9,3.4-0.9,6.2v30.6
			h-13.6c0-10.5,0.2-42.9,0.1-54.2h13.6v5.3c0,1.4,0.9,2.7,2.3,3.1c1.4,0.4,2.9-0.1,3.7-1.4c2.7-4.2,6.7-8.5,15.4-8.5
			c12.7,0,20,8.8,20,24.1v31.5h-13.7v-29.2c0-4.9-1-8.9-2.9-11.8C152.9,125.3,149.2,123.5,144.7,123.5z"/>
		<path class="st0" d="M106.9,93.4c-0.2-8.1-6.1-13.7-14.5-13.7c-8.5,0-14.7,5.8-14.7,13.7s6.1,13.7,14.4,13.7h0.1
			C100.7,107.3,106.9,101.5,106.9,93.4C106.9,93.5,106.9,93.5,106.9,93.4z M92.2,100.7h-0.1c-4.7,0-7.9-2.9-7.9-7.2s3.3-7.2,8.1-7.2
			c4.8,0,7.9,2.8,8,7.3C100.4,97.9,97.1,100.7,92.2,100.7z"/>
		<path class="st0" d="M82.1,109c-1.8,0-3.3,1.5-3.3,3.3V173c0,1.8,1.5,3.3,3.3,3.3h20.2c1.8,0,3.3-1.5,3.3-3.3v-60.7
			c0-1.8-1.5-3.3-3.3-3.3H82.1z M99.1,169.7H85.4v-54.2h13.7V169.7z"/>
	</g>
</g>
</svg>
