<?xml version="1.0" encoding="utf-8"?>
<!-- Generator: Adobe Illustrator 22.1.0, SVG Export Plug-In . SVG Version: 6.00 Build 0)  -->
<svg version="1.1" id="Layer_1" xmlns="http://www.w3.org/2000/svg" xmlns:xlink="http://www.w3.org/1999/xlink" x="0px" y="0px"
	 viewBox="0 0 256 256" style="enable-background:new 0 0 256 256;" xml:space="preserve">
<style type="text/css">
	.st0{fill:#00AABE;}
</style>
<g>
	<path class="st0" d="M191.6,64.4C174.6,47.4,152,38,128,38c-24,0-46.6,9.4-63.6,26.4C47.4,81.4,38,104,38,128
		c0,24,9.4,46.6,26.4,63.6c17,17,39.6,26.4,63.6,26.4c24,0,46.6-9.4,63.6-26.4c17-17,26.4-39.6,26.4-63.6
		C218,104,208.6,81.4,191.6,64.4z M210.5,128c0,22-8.6,42.7-24.2,58.3c-15.6,15.6-36.3,24.1-58.3,24.1c-22,0-42.7-8.6-58.3-24.1
		C54.1,170.7,45.5,150,45.5,128c0-22,8.6-42.7,24.2-58.3C85.3,54.1,106,45.5,128,45.5c22,0,42.7,8.6,58.3,24.2
		C201.9,85.3,210.5,106,210.5,128z"/>
	<path class="st0" d="M181.9,101c0.8-1.2,0.7-2.7-0.2-3.8c-0.9-1.1-2.4-1.4-3.7-0.9c-0.1,0-0.2,0.1-0.2,0.1c0.7-1.3,1.4-2.7,1.8-4.2
		c0.4-1.2,0-2.6-1-3.4c-1-0.8-2.5-0.9-3.6-0.2c-3.2,1.9-6.6,3.3-10.2,4.1c-4.3-3.9-9.9-6-15.7-6c-12.8,0-23.2,10.4-23.2,23.2
		c0,0.4,0,0.7,0,1.1c-13.8-1.7-26.5-8.7-35.3-19.5C90,90.7,89,90.2,88,90.3c-1,0.1-2,0.7-2.5,1.6c-2.1,3.5-3.1,7.6-3.1,11.7
		c0,3.9,1,7.7,2.8,11.1c-0.5,0-1,0.2-1.4,0.4c-1,0.6-1.6,1.6-1.6,2.7v0.3c0,7,3.1,13.3,8.1,17.7c-0.1,0.1-0.2,0.2-0.3,0.3
		c-0.7,0.8-1,2-0.6,3c2.2,6.7,7.2,12,13.5,14.5c-5.1,2.6-10.8,3.9-16.7,3.9c-1.5,0-3-0.1-4.4-0.3c-1.5-0.2-2.8,0.7-3.3,2.1
		c-0.5,1.4,0,2.9,1.3,3.7c9.7,6.2,21,9.5,32.5,9.5c22.7,0,36.9-10.7,44.8-19.7c9.9-11.2,15.5-26,15.5-40.6c0-0.4,0-0.7,0-1.1
		C176.1,108.3,179.3,104.9,181.9,101z M167.4,107c-0.9,0.6-1.4,1.6-1.3,2.7c0,0.8,0.1,1.6,0.1,2.4c0,13.1-5.1,26.4-13.9,36.4
		c-7.1,8-19.7,17.6-40.1,17.6c-6.2,0-12.3-1.1-18.1-3.1c6.9-1.2,13.4-4.1,19-8.6c1.1-0.8,1.5-2.2,1-3.5c-0.4-1.3-1.6-2.1-2.9-2.2
		c-5.6-0.1-10.6-2.9-13.6-7.3c1.6-0.1,3.2-0.4,4.7-0.8c1.4-0.4,2.4-1.7,2.3-3.2c0-1.5-1.1-2.7-2.5-3c-6.3-1.3-11.2-6-12.9-11.9
		c1.7,0.4,3.4,0.7,5.2,0.8c1.4,0,2.7-0.8,3.1-2.2c0.4-1.3-0.1-2.8-1.3-3.6c-4.7-3.1-7.5-8.4-7.5-14.1c0-1.4,0.2-2.9,0.5-4.2
		c10.6,10.9,25,17.5,40.3,18.3c1,0,1.9-0.4,2.6-1.1c0.6-0.8,0.9-1.8,0.7-2.7c-0.3-1.2-0.4-2.5-0.4-3.9c0-9.3,7.6-16.9,16.9-16.9
		c4.7,0,9.2,1.9,12.4,5.3c0.7,0.8,1.8,1.1,2.9,0.9c1.2-0.2,2.4-0.5,3.5-0.9c-0.6,0.5-1.2,0.9-1.9,1.3c-1.3,0.8-1.8,2.3-1.4,3.7
		c0.5,1.4,1.9,2.3,3.4,2.1c0.5-0.1,1-0.1,1.5-0.2C168.9,105.9,168.2,106.5,167.4,107z"/>
</g>
</svg>
